<svg xmlns="http://www.w3.org/2000/svg" width="666" height="181" stroke="#000" stroke-linecap="round" stroke-linejoin="round" fill="#fff" fill-rule="evenodd"><path d="M206.6419 180.2326V4.0157h7.8867v27.7191c.9311-1.229 1.7946-2.5344 2.5756-3.907 6.5891-16.5631 20.4825-27.0156 35.6535-26.8094 17.9823-.6498 32.5968 7.4171 41.1822 26.8094 11.0915 24.4436 11.7307 53.8799 1.7195 78.9964-7.9999 21.7324-27.7668 32.5367-48.9257 28.5686-13.3769-1.3784-25.2672-10.8852-31.5746-25.2496v70.0817zm7.8867-113.8815l1.7672 20.6916c3.1202 23.5517 14.6076 37.4683 32.6469 40.0837 17.4733 3.4807 34.5356-8.4808 40.7576-28.5681 7.0187-20.263 6.4992-43.2029-1.3877-62.9924-6.6126-17.939-22.2347-28.3991-38.2895-25.6385-15.0315 1.3245-27.7224 14.0418-31.6227 31.6877-1.6818 8.1449-2.9709 16.4017-3.8718 24.7284zm249.2347 23.9497c-2.4755 25.6614-20.2453 45.1379-41.5618 45.5503-33.0781 2.019-48.6027-24.5991-51.0691-55.3156-1.7163-16.6803.5171-33.6087 6.4423-48.8083 8.4602-21.3967 27.3801-33.6903 46.7705-30.3875 18.4208 1.8975 33.7746 17.8587 38.1262 39.6325 1.6801 9.6709 2.9148 19.4492 3.7038 29.2864h-86.8729c-1.6085 27.8489 10.7425 50.2382 28.2456 55.6366 21.7999 6.4997 40.4329-4.9475 47.1976-30.0663 1.5033-6.4463 4.2397-7.3561 9.0742-5.5281zm-84.522-28.9578h77.7028c-.488-29.6692-15.7335-51.2324-36.4111-51.4767-23.3447-.4594-40.276 20.2402-41.2917 51.4767zM479.824 90.9498h7.6145c.5725 13.8635 7.4937 26.174 17.9347 31.8872 13.0214 7.1027 28.0067 6.6237 40.703-1.3004 7.0016-3.8186 11.2888-12.5239 10.7424-21.8001.4046-8.9749-4.155-17.1852-11.169-20.111-8.3815-3.7773-17.291-5.8573-25.8281-9.176-8.8831-3.0643-17.5691-6.9139-25.9911-11.5157-13.7535-8.1358-14.6074-39.8235.9674-49.8553 16.2005-11.0796 35.934-11.4483 52.4093-.9788 10.0581 6.7287 15.6185 20.3166 13.9647 34.1034h-6.5323c0-.3819-.5925-.7189-.5925-1.1089-.8083-25.2337-18.3113-33.1252-37.102-30.9073-5.6781.765-11.0635 2.8444-16.1114 5.918-6.219 3.4419-9.964 11.2717-9.3357 19.522.0108 8.2558 4.3146 15.6071 10.7367 18.3522 8.2051 3.6476 16.9106 5.9872 25.3983 8.8469l20.5099 6.4997c9.5415 3.7955 16.1613 14.331 16.6451 26.4883 1.6389 13.3429-3.9755 26.4566-13.9086 32.5353-17.9332 12.2963-47.4702 9.0466-60.6268-6.4992-6.7335-8.2047-10.4856-19.3455-10.4099-30.9079zm181.601-48.7391h-7.1428c0-1.1699-.3788-2.2934-.4853-3.1882-.2352-13.3727-8.1662-24.7179-19.0136-27.1989-9.9265-3.4504-20.5163-2.8327-30.1236 1.759-7.802 2.7053-13.2011 11.3156-13.2649 21.1502-.2772 9.6923 5.1057 18.2865 12.8862 20.5612l32.6484 10.1553c3.5315 1.0259 7.0088 2.3075 10.4121 3.8382 10.4097 4.5882 17.4782 16.3031 17.7937 29.6919.3201 13.4141-6.1969 25.6878-16.4056 30.8924-15.3217 8.4341-32.8692 8.6477-48.3284.5887-12.8781-6.7294-20.935-22.4633-20.1924-39.4344h6.9792c2.6253 15.332 11.3131 28.1021 23.2335 34.143s25.5291 4.5571 36.372-3.9458c6.6399-4.1851 10.6659-12.6707 10.3089-21.7321.3342-8.9811-4.2931-17.1389-11.3312-19.9804-8.3808-3.7773-17.2916-5.7881-25.8288-9.1757-8.9324-3.0183-17.6735-6.8233-26.1491-11.3855-13.4269-8.0067-14.4989-39.4339.8084-49.4588 16.4202-11.5562 36.6411-11.8301 53.2697-.7185 9.5551 6.909 14.8398 20.0036 13.478 33.3848zm-467.7641 90.4597c-5.8187 2.6665-12.3616-.3496-15.2477-7.0283l-27.767-46.5283-4.0238-6.4997-32.222 53.0978c-2.7164 6.3879-8.9214 9.3403-14.4963 6.8975l41.5025-67.4814-38.6159-60.9744c5.7329-2.5077 12.1165.2147 15.3032 6.4997l28.7734 47.1033 28.9429-46.92c2.743-6.2826 8.9296-9.0809 14.3919-6.5066l-14.9842 24.0938-20.296 32.017c-1.1447 1.2329-1.7942 2.9958-1.7942 4.8475s.6495 3.6146 1.7942 4.8482l38.662 62.5339zM369.9011 3.5039v9.1756c-10.9801-.8734-21.7575 3.9287-29.6571 13.2165s-12.186 22.1936-11.7975 35.5233q0 32.146 0 64.2926v7.2865h-7.6798V4.0767h7.5706v26.42c9.288-19.2698 23.6275-26.42 41.6163-26.9392zM.5102 64.2868L3.8936 44.046c9.2875-40.0227 47.1501-56.6768 73.1976-31.8862 15.2546 14.5128 19.0543 35.0755 18.3112 58.2437H9.4775c-1.3834 41.384 23.255 66.3722 54.7731 53.6182 10.3869-4.5879 18.2068-15.048 20.7754-28.0473 1.6711-6.4997 4.4177-7.6162 9.4551-5.7358-1.7013 16.0518-9.3808 30.2738-20.8319 38.5928-19.1652 12.6995-42.8988 9.0246-58.8051-9.107C7.1725 109.2713 2.5395 96.0583 1.6372 82.1032c0-2.2943-.6306-4.4353-1.072-6.4997Q.5 69.8153.5 64.2868zm9.0786-2.7987h77.701c-.4883-29.9975-16.1113-51.2784-36.9432-51.4767-23.1979-.3825-39.7971 20.4309-40.8145 51.3469z" stroke-linejoin="miter" fill-rule="nonzero" fill="#646464" stroke="#646464"/></svg>