<svg xmlns="http://www.w3.org/2000/svg" width="702" height="210" stroke="#000" stroke-linecap="round" stroke-linejoin="round" fill="#fff" fill-rule="evenodd"><defs><linearGradient id="A" x1="0%" y1="0%" x2="100%" y2="100%"><stop offset="0%" stop-color="#ff8787"/><stop offset="100%" stop-color="#c70000"/></linearGradient></defs><path d="M 217.6069 208.5155 L 217.6069 4.5689 L 225.9131 4.5689 L 225.9131 36.65 C 226.8937 35.2275 227.8032 33.7168 228.6257 32.1282 C 235.5653 12.9587 250.1977 0.8613999999999999 266.1757 1.1 C 285.1145 0.348 300.5063 9.6843 309.5484 32.1282 C 321.2299 60.4182 321.9031 94.4866 311.3594 123.5555 C 302.934 148.7078 282.1156 161.2122 259.8312 156.6197 C 245.7428 155.0244 233.22 144.0216 226.5771 127.3968 L 226.5771 208.5066 Z M 225.9131 76.7135 L 227.7743 100.6612 C 231.0605 127.9189 243.1589 144.0255 262.1577 147.0525 C 280.5605 151.0808 298.5303 137.2372 305.0833 113.9888 C 312.4753 90.5373 311.9282 63.9875 303.6218 41.0839 C 296.6575 20.3221 280.2044 8.216000000000001 263.2956 11.411 C 247.4646 12.9439 234.0986 27.6624 229.9909 48.0851 C 228.2196 57.5116 226.862 67.0677 225.9131 76.7047 Z M 488.405 104.432 C 485.7978 134.1315 467.0828 156.6728 444.6325 157.15 C 409.7949 159.4869 393.4445 128.6801 390.8469 93.13 C 389.0393 73.8248 391.3915 54.2326 397.6319 36.6412 C 406.5421 11.8774 426.4683 -2.3507 446.8902 1.4718 C 466.2908 3.668 482.4613 22.1408 487.0444 47.341 C 488.8138 58.5337 490.1142 69.8507 490.9452 81.2359 L 399.4513 81.2359 C 397.7573 113.4671 410.7653 139.3797 429.1994 145.6276 C 452.1588 153.1501 471.783 139.9014 478.9075 110.8301 C 480.4908 103.3694 483.3727 102.3164 488.4644 104.432 Z M 399.3871 70.9174 L 481.2231 70.9174 C 480.7091 36.5794 464.6526 11.623 442.8752 11.3403 C 418.2888 10.8085 400.4568 34.7654 399.3871 70.9174 Z M 505.32 105.1831 L 513.3395 105.1831 C 513.9425 121.2282 521.2317 135.4759 532.2282 142.0881 C 545.9421 150.3085 561.7246 149.754 575.0962 140.5831 C 582.4701 136.1636 586.9855 126.0884 586.4099 115.3525 C 586.836 104.9653 582.0339 95.463 574.6469 92.0768 C 565.8196 87.7051 556.4361 85.2978 547.445 81.4568 C 538.0894 77.9104 528.9414 73.4549 520.0714 68.129 C 505.5862 58.7129 504.687 22.0388 521.0903 10.4285 C 538.1525 -2.3947 558.9356 -2.8214 576.2873 9.2957 C 586.8804 17.0832 592.7365 32.8092 590.9948 48.7655 L 584.115 48.7655 C 584.115 48.3236 583.491 47.9335 583.491 47.4822 C 582.6397 18.2777 564.2057 9.1444 544.4155 11.7113 C 538.4354 12.5967 532.7635 15.0033 527.4471 18.5605 C 520.8973 22.544 516.9531 31.6059 517.6147 41.1545 C 517.6262 50.7095 522.1588 59.2176 528.9226 62.3947 C 537.5642 66.6163 546.7327 69.324 555.6719 72.6337 L 577.2726 80.1562 C 587.3218 84.5489 594.2936 96.7423 594.8032 110.8128 C 596.5293 126.2553 590.6162 141.4326 580.1548 148.4678 C 561.2678 162.6991 530.1596 158.938 516.3032 140.9458 C 509.2115 131.4502 505.2597 118.5562 505.3396 105.1743 Z M 696.5806 48.7743 L 689.0579 48.7743 C 689.0579 47.4204 688.6589 46.1201 688.5467 45.0845 C 688.299 29.6074 679.9461 16.477 668.5217 13.6056 C 658.0672 9.6121 646.9142 10.327 636.7959 15.6414 C 628.5789 18.7723 622.8926 28.7375 622.8254 40.1197 C 622.5334 51.3372 628.2027 61.2838 636.397 63.9164 L 670.7821 75.6698 C 674.5013 76.8572 678.1635 78.3404 681.7479 80.112 C 692.7114 85.4222 700.1559 98.9806 700.4881 114.4762 C 700.8252 130.0012 693.9616 144.2064 683.2099 150.2299 C 667.0732 159.9912 648.5923 160.2384 632.3109 150.9113 C 618.7478 143.1228 610.2622 124.9131 611.0443 105.2714 L 618.3948 105.2714 C 621.1597 123.0161 630.3096 137.7957 642.8642 144.7872 C 655.4161 151.7774 669.7512 150.0614 681.1708 140.2205 C 688.1639 135.3767 692.4041 125.5559 692.0281 115.0685 C 692.3799 104.6742 687.5066 95.2327 680.094 91.944 C 671.2676 87.5723 661.8828 85.2451 652.8915 81.3244 C 643.4839 77.8312 634.2779 73.4274 625.3515 68.1473 C 611.2103 58.8806 610.0813 22.5081 626.2029 10.9056 C 643.4965 -2.469 664.793 -2.7861 682.3061 10.074 C 692.3693 18.0702 697.9352 33.2255 696.501 48.7123 Z M 203.9354 153.4689 C 197.8072 156.555 190.9163 153.0643 187.8767 145.3346 L 158.6327 91.4846 L 154.3949 83.9621 L 120.4589 145.4154 C 117.598 152.8085 111.063 156.2255 105.1916 153.3983 L 148.9016 75.298 L 108.2317 4.7285 C 114.2696 1.8263 120.9927 4.9771 124.3489 12.251 L 154.6528 66.7666 L 185.1352 12.4633 C 188.0241 5.192 194.5398 1.9533 200.2926 4.9328 L 184.5114 32.8179 L 163.1359 69.8732 C 161.9302 71.3001 161.2462 73.3403 161.2462 75.4835 C 161.2462 77.6261 161.9302 79.6669 163.1359 81.0946 L 203.8543 153.4689 Z M 389.5501 3.9767 L 389.5501 14.5962 C 377.986 13.5853 366.6353 19.143 358.3155 29.8924 C 349.9981 40.6409 345.4813 55.5784 345.8905 71.0057 Q 345.8905 108.2102 345.8905 145.4154 L 345.8905 153.8485 L 337.8022 153.8485 L 337.8022 4.6395 L 345.7754 4.6395 L 345.7754 35.2171 C 355.5575 12.9149 370.6598 4.6395 389.6054 4.0387 Z M 0.5107 74.3244 L 4.0741 50.8984 C 13.8556 4.5777 53.7322 -14.6971 81.1652 13.9946 C 97.2313 30.7913 101.233 54.5897 100.4504 81.4036 L 9.955 81.4036 C 8.4981 129.2999 34.447 158.2202 67.6416 143.4593 C 78.581 138.1494 86.8169 126.0433 89.522 110.9984 C 91.2821 103.4759 94.1747 102.1838 99.4801 104.3599 C 97.6883 122.9377 89.6003 139.3977 77.5402 149.0258 C 57.3555 163.7237 32.3594 159.4705 15.6071 138.4857 C 7.5275 126.3877 2.648 111.0955 1.6977 94.9444 C 1.6977 92.289 1.0335999999999999 89.8111 0.5687 87.4219 Q 0.5 80.7229 0.5 74.3244 Z M 10.0723 71.0853 L 91.9063 71.0853 C 91.392 36.3674 74.938 11.7377 52.9981 11.5082 C 28.5662 11.0654 11.084 35.1542 10.0126 70.9351 Z" stroke-linejoin="miter" fill-rule="nonzero" stroke="url(#A)" fill="#900"/></svg>