<!-- icon666.com - MILLIONS vector ICONS FREE --><svg viewBox="-78 0 1168 1168.7489" xmlns="http://www.w3.org/2000/svg"><path d="m981.964844 299.226562c-79.839844-171.683593-247.28125-285.878906-436.269532-297.511718l-18.765624-1.714844-17.183594.425781c-58.324219 2.140625-115.460938 16.921875-167.5 43.332031-138.332032 69.167969-225.535156 210.769532-225.023438 365.425782v72.515625l-114.0625 190.132812c-3.613281 6.007813-3.722656 13.5-.261718 19.617188 3.457031 6.105469 9.9375 9.878906 16.953124 9.878906h121.917969l-11.824219 175.566406c-9.011718 51.921875 25.214844 101.519531 76.964844 111.511719 1.289063.269531 2.589844.390625 3.894532.390625.707031 0 1.394531-.042969 2.089843-.117187l118.578125-12.851563v173.449219c0 10.765625 8.710938 19.472656 19.472656 19.472656h467.421876c10.75 0 19.472656-8.707031 19.472656-19.472656v-193.558594l152.179687-376.03125c33.445313-91.054688 30.554688-191.480469-8.054687-280.460938zm-28.34375 266.523438-153.316406 378.859375c-1.058594 2.769531-1.464844 5.75-1.1875 8.707031 0 .410156-.230469.75-.230469 1.164063v175.273437h-428.464844v-175.238281c0-.40625-.21875-.75-.246094-1.160156-.019531-.410157.183594-.867188.128907-1.316407-.246094-1.085937-.589844-2.15625-1.046876-3.1875-.574218-2.652343-1.886718-5.078124-3.773437-7.035156-.292969-.351562-.398437-.796875-.722656-1.128906-.3125-.328125-.367188-.183594-.535157-.339844-1.621093-1.523437-3.488281-2.75-5.519531-3.644531l-.273437-.144531c-2.976563-1.417969-6.289063-2.03125-9.574219-1.785156l-137.074219 14.835937c-30.230468-7.628906-49.203125-37.574219-43.183594-68.167969l13.445313-198.257812c.757813-10.738282-7.34375-20.058594-18.085937-20.8125-1.453126 0-109.640626 0-109.640626 0l99.125-165.242188c.179688-.40625.328126-.824218.449219-1.25.574219-1.175781 1.015625-2.402344 1.308594-3.683594.386719-1.261718.652344-2.570312.777344-3.894531 0-.453125.261719-.839843.261719-1.300781v-77.941406c-.496094-139.9375 78.355468-268.082032 203.476562-330.734375 46.992188-23.855469 98.601562-37.226563 151.269531-39.183594h15.585938c180.839843 5.105469 343.320312 111.804687 419.851562 275.726563 34.480469 79.613281 37.058594 169.4375 7.195313 250.882812zm0 0" fill="#000000" style="fill: rgb(203, 6, 6);"></path><path d="m857.316406 526.039062c-24.683594.109376-46.632812 15.6875-54.839844 38.960938h-62.015624v-98.929688c70.28125-10.710937 120.542968-73.644531 115.453124-144.550781-5.09375-70.914062-63.832031-126.015625-134.929687-126.570312-1.949219 0-3.902344 0-5.722656.144531-15.226563-51.484375-59.269531-89.226562-112.476563-96.378906-53.203125-7.144532-105.648437 17.628906-133.921875 63.261718-12.957031-4.003906-26.460937-6.015624-40.019531-5.980468-67.488281.269531-124.625 49.863281-134.375 116.636718-9.75 66.785157 30.824219 130.648438 95.425781 150.1875v142.179688h-62.023437c-9.476563-26.832031-36.90625-42.929688-64.960938-38.109375-28.050781 4.808594-48.546875 29.125-48.546875 57.582031 0 28.457032 20.496094 52.773438 48.546875 57.59375 28.054688 4.808594 55.484375-11.285156 64.960938-38.117187h81.5c10.753906 0 19.472656-8.714844 19.472656-19.476563v-155.8125h38.949219v233.710938h-58.421875c-10.757813 0-19.476563 8.726562-19.476563 19.484375v139.910156c-26.828125 9.488281-42.929687 36.925781-38.117187 64.972656 4.8125 28.042969 29.128906 48.550781 57.59375 48.550781 28.449218 0 52.757812-20.507812 57.582031-48.550781 4.804687-28.046875-11.277344-55.484375-38.109375-64.972656v-120.4375h58.429688c10.75 0 19.472656-8.714844 19.472656-19.472656v-253.195313h38.949218v393.105469c-26.820312 9.488281-42.921874 36.925781-38.105468 64.972656 4.804687 28.042969 29.121094 48.550781 57.585937 48.550781 28.453125 0 52.769531-20.507812 57.578125-48.550781 4.8125-28.046875-11.277344-55.484375-38.105468-64.972656v-393.105469h38.953124v253.195313c0 10.757812 8.71875 19.472656 19.476563 19.472656h58.433594v120.4375c-26.828125 9.488281-42.9375 36.925781-38.121094 64.972656 4.8125 28.042969 29.128906 48.550781 57.59375 48.550781 28.449219 0 52.765625-20.507812 57.582031-48.550781 4.8125-28.046875-11.28125-55.484375-38.105468-64.972656v-139.910156c0-10.757813-8.722657-19.484375-19.476563-19.484375h-58.433594v-208.191406c12.324219 5.886718 25.453125 9.886718 38.960938 11.863281v118.429687c0 10.761719 8.710937 19.476563 19.472656 19.476563h81.492187c9.941407 27.949219 39.28125 43.960937 68.175782 37.242187 28.878906-6.734375 48.125-34.0625 44.710937-63.527344-3.410156-29.453124-28.390625-51.671874-58.046875-51.625zm-584.28125 77.910157c-10.757812 0-19.480468-8.714844-19.480468-19.476563 0-10.761718 8.722656-19.472656 19.480468-19.472656 10.761719 0 19.472656 8.710938 19.472656 19.472656 0 10.761719-8.710937 19.476563-19.472656 19.476563zm136.335938 292.128906c-10.757813 0-19.476563-8.699219-19.476563-19.472656 0-10.75 8.71875-19.476563 19.476563-19.476563 10.753906 0 19.472656 8.726563 19.472656 19.476563 0 10.773437-8.71875 19.472656-19.472656 19.472656zm155.804687 0c-10.753906 0-19.480469-8.699219-19.480469-19.472656 0-10.75 8.726563-19.476563 19.480469-19.476563 10.75 0 19.472657 8.726563 19.472657 19.476563 0 10.773437-8.722657 19.472656-19.472657 19.472656zm155.808594 0c-10.761719 0-19.472656-8.699219-19.472656-19.472656 0-10.75 8.710937-19.476563 19.472656-19.476563 10.753906 0 19.476563 8.726563 19.476563 19.476563 0 10.773437-8.722657 19.472656-19.476563 19.472656zm-389.511719-603.746094c-.058594-33.234375 16.878906-64.203125 44.90625-82.082031 28.015625-17.882812 63.226563-20.210938 93.367188-6.179688 4.726562 2.183594 10.132812 2.378907 15.011718.5625 4.878907-1.839843 8.816407-5.546874 10.945313-10.300781 17.417969-39.226562 58.503906-62.398437 101.09375-57.011719 42.578125 5.390626 76.601563 38.054688 83.71875 80.390626.589844 3.324218 2.148437 6.40625 4.457031 8.859374 1.074219 1.707032 2.382813 3.222657 3.894532 4.53125 4.382812 3.679688 10.148437 5.25 15.792968 4.324219 46.152344-7.9375 91.425782 18.113281 107.769532 62.003907 16.335937 43.886718-.894532 93.199218-41.007813 117.382812-40.105469 24.171875-91.746094 16.359375-122.933594-18.585938-3.667969-4.121093-8.90625-6.484374-14.425781-6.515624h-205.21875c-53.757812-.058594-97.3125-43.621094-97.371094-97.378907zm525.84375 311.617188c-10.757812 0-19.476562-8.714844-19.476562-19.476563 0-10.761718 8.71875-19.472656 19.476562-19.472656 10.757813 0 19.472656 8.710938 19.472656 19.472656 0 10.761719-8.714843 19.476563-19.472656 19.476563zm0 0" fill="#000000" style="fill: rgb(203, 6, 6);"></path></svg>