<!-- icon666.com - MILLIONS vector ICONS FREE --><svg viewBox="0 0 24 24" xmlns="http://www.w3.org/2000/svg" xmlns:xlink="http://www.w3.org/1999/xlink"><linearGradient id="linear-gradient" gradientUnits="userSpaceOnUse" x1="3.25" x2=".75" y1="4" y2="4"><stop offset="0" stop-color="#4bfabf"></stop><stop offset=".4373" stop-color="#4af7bd"></stop><stop offset=".7002" stop-color="#48efb6"></stop><stop offset=".9163" stop-color="#43e1ab"></stop><stop offset="1" stop-color="#41d9a5"></stop></linearGradient><linearGradient id="linear-gradient-2" xlink:href="#linear-gradient" y1="8" y2="8"></linearGradient><linearGradient id="linear-gradient-3" xlink:href="#linear-gradient" y1="12" y2="12"></linearGradient><linearGradient id="linear-gradient-4" xlink:href="#linear-gradient" y1="16" y2="16"></linearGradient><linearGradient id="linear-gradient-5" xlink:href="#linear-gradient" y1="20" y2="20"></linearGradient><linearGradient id="linear-gradient-6" x1="18.25" x2="15.75" xlink:href="#linear-gradient" y2="4"></linearGradient><linearGradient id="linear-gradient-7" x1="18.25" x2="15.75" xlink:href="#linear-gradient" y1="8" y2="8"></linearGradient><linearGradient id="linear-gradient-8" x1="18.25" x2="15.75" xlink:href="#linear-gradient" y1="12" y2="12"></linearGradient><linearGradient id="linear-gradient-9" x1="18.25" x2="15.75" xlink:href="#linear-gradient" y1="16" y2="16"></linearGradient><linearGradient id="linear-gradient-10" x1="18.25" x2="15.75" xlink:href="#linear-gradient" y1="20" y2="20"></linearGradient><linearGradient id="linear-gradient-11" x1="8.25" x2="5.75" xlink:href="#linear-gradient" y1="7" y2="7"></linearGradient><linearGradient id="linear-gradient-12" x1="8.25" x2="5.75" xlink:href="#linear-gradient" y1="12" y2="12"></linearGradient><linearGradient id="linear-gradient-13" x1="8.25" x2="5.75" xlink:href="#linear-gradient" y1="17" y2="17"></linearGradient><linearGradient id="linear-gradient-14" x1="13.25" x2="10.75" xlink:href="#linear-gradient" y1="7" y2="7"></linearGradient><linearGradient id="linear-gradient-15" x1="13.25" x2="10.75" xlink:href="#linear-gradient" y1="12" y2="12"></linearGradient><linearGradient id="linear-gradient-16" x1="13.25" x2="10.75" xlink:href="#linear-gradient" y1="17" y2="17"></linearGradient><linearGradient id="linear-gradient-17" x1="23.25" x2="20.75" xlink:href="#linear-gradient" y1="12" y2="12"></linearGradient><g id="FLAT"><path d="m22.238 12.0088a.2232.2232 0 0 0 .0017-.0582.2359.2359 0 0 0 -.0375-.0769l.01-.006-5-8-.2122.1323-.2119-.1323-4.5381 7.26v-4.1277h-.25l-.1768-.1768-2.3232 2.3233-2.3232-2.3233-.1768.1768h-.25v4.1286l-4.5381-7.2609-.2119.1323h-.25v16h.25l.2119.1323 4.5381-7.2609v4.1286h.25l.1768.1768 2.3232-2.3233 2.3232 2.3233.1768-.1768h.25v-4.1286l4.5381 7.2609.2119-.1323.2119.1323 5-8c.0048-.0077.0014-.017.0053-.025.0048-.01.015-.0145.0186-.0248a.2335.2335 0 0 0 .0022-.0737zm-19.988-3.4888 4.0371 3.23h-4.0371zm0 3.73h4.0371l-4.0371 3.23zm0-4.37v-3.0085l3.76 6.0161zm0 8.2406 3.76-3.0079-3.76 6.0158zm9.1465-3.87-1.8965 1.8959-1.8965-1.8965zm-3.793-.5 1.8965-1.8971 1.8965 1.8965zm9.1465 0h-4.0371l4.0371-3.2306zm.5-3.23 4.0371 3.23h-4.0371zm0-.6406v-3.0086l3.76 6.0166zm-.5 0-3.76 3.008 3.76-6.0166zm0 4.37v3.23l-4.0371-3.23zm.5 0h4.0371l-4.0371 3.23zm-5.5-4.6465v3.793l-1.8965-1.8965zm-4.5 3.793v-3.793l1.8965 1.8965zm0 5v-3.793l1.8965 1.8965zm4.5-3.793v3.793l-1.8965-1.8965zm5 3.5168v3.0082l-3.76-6.0167zm.5 3.0082v-3.0085l3.76-3.0085z" fill="#807a6e"></path><circle cx="2" cy="4" fill="url(#linear-gradient)" r="1.25"></circle><circle cx="2" cy="8" fill="url(#linear-gradient-2)" r="1.25"></circle><circle cx="2" cy="12" fill="url(#linear-gradient-3)" r="1.25"></circle><circle cx="2" cy="16" fill="url(#linear-gradient-4)" r="1.25"></circle><circle cx="2" cy="20" fill="url(#linear-gradient-5)" r="1.25"></circle><circle cx="17" cy="4" fill="url(#linear-gradient-6)" r="1.25"></circle><circle cx="17" cy="8" fill="url(#linear-gradient-7)" r="1.25"></circle><circle cx="17" cy="12" fill="url(#linear-gradient-8)" r="1.25"></circle><circle cx="17" cy="16" fill="url(#linear-gradient-9)" r="1.25"></circle><circle cx="17" cy="20" fill="url(#linear-gradient-10)" r="1.25"></circle><circle cx="7" cy="7" fill="url(#linear-gradient-11)" r="1.25"></circle><circle cx="7" cy="12" fill="url(#linear-gradient-12)" r="1.25"></circle><circle cx="7" cy="17" fill="url(#linear-gradient-13)" r="1.25"></circle><circle cx="12" cy="7" fill="url(#linear-gradient-14)" r="1.25"></circle><circle cx="12" cy="12" fill="url(#linear-gradient-15)" r="1.25"></circle><circle cx="12" cy="17" fill="url(#linear-gradient-16)" r="1.25"></circle><circle cx="22" cy="12" fill="url(#linear-gradient-17)" r="1.25"></circle></g><g id="Highlight" fill="#8afad4"><path d="m2 3.25a.25.25 0 0 0 0 .5.25.25 0 0 1 .25.25.25.25 0 0 0 .5 0 .7508.7508 0 0 0 -.75-.75z"></path><path d="m2 7.25a.25.25 0 0 0 0 .5.25.25 0 0 1 .25.25.25.25 0 0 0 .5 0 .7508.7508 0 0 0 -.75-.75z"></path><path d="m2 11.25a.25.25 0 0 0 0 .5.25.25 0 0 1 .25.25.25.25 0 0 0 .5 0 .7508.7508 0 0 0 -.75-.75z"></path><path d="m2 15.25a.25.25 0 0 0 0 .5.25.25 0 0 1 .25.25.25.25 0 0 0 .5 0 .7508.7508 0 0 0 -.75-.75z"></path><path d="m2 19.25a.25.25 0 0 0 0 .5.25.25 0 0 1 .25.25.25.25 0 0 0 .5 0 .7508.7508 0 0 0 -.75-.75z"></path><path d="m17 3.25a.25.25 0 0 0 0 .5.25.25 0 0 1 .25.25.25.25 0 0 0 .5 0 .7508.7508 0 0 0 -.75-.75z"></path><path d="m17 7.25a.25.25 0 0 0 0 .5.25.25 0 0 1 .25.25.25.25 0 0 0 .5 0 .7508.7508 0 0 0 -.75-.75z"></path><path d="m17 11.25a.25.25 0 0 0 0 .5.25.25 0 0 1 .25.25.25.25 0 0 0 .5 0 .7508.7508 0 0 0 -.75-.75z"></path><path d="m17 15.25a.25.25 0 0 0 0 .5.25.25 0 0 1 .25.25.25.25 0 0 0 .5 0 .7508.7508 0 0 0 -.75-.75z"></path><path d="m17 19.25a.25.25 0 0 0 0 .5.25.25 0 0 1 .25.25.25.25 0 0 0 .5 0 .7508.7508 0 0 0 -.75-.75z"></path><path d="m7 6.25a.25.25 0 0 0 0 .5.25.25 0 0 1 .25.25.25.25 0 0 0 .5 0 .7508.7508 0 0 0 -.75-.75z"></path><path d="m7 11.25a.25.25 0 0 0 0 .5.25.25 0 0 1 .25.25.25.25 0 0 0 .5 0 .7508.7508 0 0 0 -.75-.75z"></path><path d="m7 16.25a.25.25 0 0 0 0 .5.25.25 0 0 1 .25.25.25.25 0 0 0 .5 0 .7508.7508 0 0 0 -.75-.75z"></path><path d="m12 6.25a.25.25 0 0 0 0 .5.25.25 0 0 1 .25.25.25.25 0 0 0 .5 0 .7508.7508 0 0 0 -.75-.75z"></path><path d="m12 11.25a.25.25 0 0 0 0 .5.25.25 0 0 1 .25.25.25.25 0 0 0 .5 0 .7508.7508 0 0 0 -.75-.75z"></path><path d="m12 16.25a.25.25 0 0 0 0 .5.25.25 0 0 1 .25.25.25.25 0 0 0 .5 0 .7508.7508 0 0 0 -.75-.75z"></path><path d="m22 11.25a.25.25 0 0 0 0 .5.25.25 0 0 1 .25.25.25.25 0 0 0 .5 0 .7508.7508 0 0 0 -.75-.75z"></path></g></svg>